<?xml version="1.0" standalone="no"?>
<!DOCTYPE svg PUBLIC "-//W3C//DTD SVG 20010904//EN"
 "http://www.w3.org/TR/2001/REC-SVG-20010904/DTD/svg10.dtd">
<svg version="1.0"
  xmlns="http://www.w3.org/2000/svg" width="300.000000pt" height="179.000000pt" viewBox="0 0 300.000000 179.000000" preserveAspectRatio="xMidYMid meet">
  <metadata>
Created by potrace 1.10, written by Peter Selinger 2001-2011
  </metadata>
  <g transform="translate(0.000000,179.000000) scale(0.100000,-0.100000)" fill="#ffffff" style="stroke:#4387be; stroke-width:5">
    <path d="M0 895 l0 -895 1500 0 1500 0 0 895 0 895 -1500 0 -1500 0 0 -895z
m2027 760 c69 -12 193 -77 254 -133 22 -20 28 -21 35 -9 21 34 89 59 124 43 8
-3 47 -16 85 -29 145 -47 316 -206 315 -294 -1 -45 -59 -77 -105 -58 -11 5
-45 24 -75 44 -30 19 -64 40 -75 46 -11 6 -32 19 -47 29 -16 10 -28 16 -28 13
0 -15 57 -102 87 -132 l36 -36 83 5 c82 6 84 5 119 -25 19 -17 35 -40 35 -51
0 -40 -53 -96 -130 -135 l-75 -39 -151 1 c-186 2 -204 8 -247 84 -18 31 -30
62 -29 69 2 9 -4 12 -15 10 -14 -3 -17 -11 -15 -43 2 -33 11 -48 53 -86 51
-47 58 -79 19 -79 -26 0 -34 -17 -12 -24 37 -12 54 -61 55 -164 l2 -97 27 -3
c14 -2 32 -10 39 -19 11 -13 8 -20 -19 -44 -38 -34 -65 -36 -110 -9 l-34 21
-32 -21 c-44 -27 -72 -25 -112 5 l-34 26 -28 -21 c-63 -46 -141 -34 -195 29
l-25 30 -28 -26 c-51 -47 -110 -66 -178 -59 -77 8 -93 24 -98 99 -4 53 -2 60
21 78 l26 20 17 -21 c10 -12 18 -32 18 -44 0 -31 19 -46 55 -46 25 0 75 29 75
44 0 19 -25 65 -38 70 -21 7 -67 34 -107 63 -27 19 -32 20 -50 6 -13 -9 -32
-13 -53 -9 -31 5 -33 4 -32 -27 1 -18 -1 -53 -4 -80 -3 -26 -2 -47 3 -47 17 0
21 -33 6 -50 -12 -14 -34 -17 -108 -18 -50 0 -98 5 -104 10 -9 7 -18 7 -28 -2
-8 -7 -44 -12 -85 -12 -85 0 -100 12 -98 84 1 72 21 85 138 86 67 1 101 -3
117 -13 18 -12 23 -12 33 0 7 8 15 14 18 13 22 -2 31 5 29 25 -2 33 -22 50
-46 37 -25 -13 -68 -13 -76 0 -4 6 -15 6 -31 0 -63 -24 -94 -6 -104 63 l-6 42
-13 -30 c-35 -84 -30 -80 -111 -82 -57 -1 -79 2 -92 14 -17 15 -20 15 -37 -1
-18 -17 -54 -21 -96 -13 -11 3 -28 0 -38 -5 -13 -7 -25 -5 -41 5 -15 10 -28
12 -37 6 -19 -12 -76 -11 -84 1 -4 6 -15 6 -31 0 -58 -22 -95 -4 -110 53 l-7
29 -21 -38 c-38 -67 -77 -69 -91 -3 -7 33 -25 39 -25 9 0 -33 -1 -35 -23 -47
-30 -17 -52 -16 -67 2 -10 12 -10 25 3 68 9 28 19 80 22 115 7 58 5 66 -16 89
l-24 25 24 19 c13 10 33 20 45 21 11 0 28 2 36 2 21 2 47 -40 66 -106 9 -32
20 -58 23 -58 4 0 22 30 40 68 39 78 58 102 81 102 32 0 47 -31 43 -90 -2 -30
-5 -81 -7 -112 -4 -59 2 -69 24 -43 10 12 10 18 0 30 -19 23 -3 63 33 85 38
24 72 25 110 5 25 -13 28 -12 41 8 8 12 18 36 22 52 8 33 20 45 47 45 33 0 49
-26 41 -66 -5 -27 -4 -35 5 -30 6 4 11 2 11 -4 0 -21 26 14 34 45 10 40 24 55
52 55 28 0 38 -15 39 -59 0 -19 5 -36 11 -38 7 -2 14 22 18 67 8 76 28 111 63
106 27 -4 41 -40 34 -88 -10 -65 -5 -78 33 -78 35 0 58 -19 75 -60 l10 -25 0
27 c1 15 5 29 10 32 5 3 8 21 6 40 -3 30 1 36 26 46 25 11 32 10 50 -6 13 -12
18 -25 14 -39 -8 -29 -12 -165 -4 -165 12 0 18 28 13 62 -5 27 -1 39 20 60 55
54 145 30 156 -41 l5 -34 20 38 c31 58 85 97 143 103 l50 4 -80 40 c-62 31
-78 43 -73 57 3 12 -3 22 -20 31 -14 7 -34 32 -45 56 -20 40 -20 45 -5 79 8
21 15 48 15 60 0 13 21 49 48 81 68 84 68 85 109 90 21 3 45 8 53 11 8 4 20 5
25 5 6 -1 27 6 47 16 30 16 46 17 118 10 46 -5 92 -16 104 -24 11 -7 29 -14
38 -14 10 0 27 -5 37 -12 22 -13 51 -4 51 16 0 15 -26 34 -58 41 -9 2 -44 12
-77 21 -46 13 -84 15 -165 10 -80 -4 -109 -2 -123 8 -32 25 4 38 143 52 36 3
66 7 67 8 4 3 74 -2 110 -9z m-705 -1209 c60 -20 98 -38 131 -60 41 -28 116
-18 165 21 66 53 104 66 184 61 60 -3 78 -8 101 -28 28 -24 65 -84 65 -105 0
-15 91 -43 143 -44 85 -2 116 -57 36 -63 -24 -1 -36 -6 -33 -14 3 -7 -1 -20
-8 -29 -11 -15 -23 -17 -82 -11 -38 4 -103 9 -144 12 -41 3 -86 10 -100 17
-56 26 -78 80 -44 108 13 11 20 8 45 -19 17 -18 38 -32 49 -32 19 0 50 25 50
40 0 18 -22 65 -33 72 -20 13 -32 9 -14 -4 24 -19 32 -71 14 -87 -13 -10 -20
-10 -39 1 l-23 13 23 3 c25 4 29 28 8 54 -12 17 -17 16 -75 -12 -33 -16 -61
-33 -61 -37 0 -9 -49 -33 -67 -33 -7 0 -13 -4 -13 -8 0 -4 -14 -9 -31 -10 -42
-3 -48 -8 -65 -48 -8 -19 -32 -47 -54 -63 -34 -25 -45 -28 -75 -21 -67 15
-123 70 -110 109 8 27 -50 41 -69 16 -10 -13 -27 -17 -77 -16 -56 1 -98 -7
-149 -26 -29 -11 -45 -14 -127 -20 -68 -5 -87 -3 -109 12 -16 10 -30 13 -35 8
-12 -12 -130 12 -178 36 -37 19 -95 71 -87 78 2 3 23 -9 46 -26 62 -44 130
-64 209 -59 59 3 86 12 217 75 82 39 173 77 203 84 67 15 192 7 248 -16 90
-36 128 -120 82 -179 -36 -46 -115 -30 -147 29 -9 16 -11 17 -12 4 0 -28 39
-68 79 -80 31 -9 43 -8 68 4 29 15 63 69 63 99 0 9 22 18 62 25 41 8 79 24
114 48 29 20 72 43 96 51 l43 14 -43 -4 c-25 -2 -63 -17 -93 -37 -28 -17 -76
-38 -107 -45 -72 -17 -82 -17 -82 0 0 9 17 15 58 18 48 3 70 12 120 45 121 81
237 61 256 -43 9 -45 -7 -71 -49 -83 -61 -16 -121 13 -109 53 5 17 4 18 -6 9
-20 -18 -4 -59 28 -72 16 -7 51 -11 78 -10 27 1 61 -3 75 -9 42 -17 169 -27
169 -13 0 6 -17 11 -38 11 -21 0 -64 5 -94 11 l-56 11 16 28 c16 28 17 28 52
13 20 -8 74 -17 125 -19 l90 -3 -85 13 c-99 16 -170 42 -170 63 0 8 -8 31 -17
50 -24 50 -86 77 -159 68 -50 -6 -76 -19 -152 -75 -17 -13 -51 -23 -84 -27
-50 -5 -58 -3 -98 26 -93 67 -243 81 -391 35 -70 -22 -104 -27 -206 -28 -68 0
-123 -4 -123 -8 0 -10 126 -21 177 -15 l46 5 -54 -31 c-50 -29 -61 -31 -154
-31 -103 -1 -184 21 -170 44 4 7 11 8 18 1 21 -16 132 -32 172 -23 l39 8 -41
12 c-42 12 -61 36 -41 48 7 4 41 7 77 6 72 -1 207 18 231 33 23 14 179 41 222
39 25 -1 66 -9 90 -18z m-805 -132 c7 -1 13 1 13 5 0 5 22 -3 50 -17 36 -18
67 -25 119 -26 75 -1 72 -13 -7 -23 -69 -8 -152 12 -206 51 -47 33 -54 59 -8
28 14 -9 31 -17 39 -18z"/>
    <path d="M1785 1629 c-93 -14 -89 -20 10 -12 50 4 108 6 130 4 48 -2 166 -36
217 -62 21 -11 43 -18 50 -17 7 2 12 -3 10 -11 -2 -9 3 -11 13 -7 11 4 14 2 9
-6 -5 -7 -3 -8 6 -3 9 6 11 4 5 -5 -6 -9 -4 -11 5 -5 9 6 11 4 5 -5 -5 -8 -4
-11 2 -7 5 3 24 -8 40 -26 22 -23 30 -40 28 -60 -3 -18 0 -25 7 -21 7 4 8 2 4
-4 -4 -7 -14 -12 -23 -12 -10 0 3 -18 32 -45 27 -24 52 -42 56 -39 4 2 13 -5
19 -16 6 -11 15 -20 21 -20 5 0 2 11 -7 26 -9 14 -23 23 -30 20 -8 -3 -13 -2
-11 3 1 5 -9 17 -22 28 -14 11 -20 22 -14 26 5 3 42 -24 81 -61 40 -37 72 -63
72 -57 0 5 -14 22 -32 37 -18 14 -30 29 -27 32 3 3 20 -8 37 -24 36 -33 43
-70 12 -67 -10 1 -17 3 -15 6 7 6 -15 31 -27 31 -5 0 -6 -6 -1 -12 4 -7 8 -17
8 -22 0 -6 15 -14 34 -18 18 -5 31 -12 28 -15 -8 -8 -77 17 -77 28 0 6 -5 7
-10 4 -6 -4 -8 -11 -5 -16 4 -5 0 -10 -7 -10 -7 -1 1 -5 17 -9 25 -6 26 -8 7
-9 -13 0 -31 3 -41 8 -11 6 -23 6 -32 0 -12 -8 -12 -10 1 -8 27 3 40 -1 40
-10 0 -12 -70 -2 -87 11 -7 5 -17 7 -23 3 -5 -3 -10 -1 -10 6 0 7 -3 9 -7 6
-3 -4 -12 1 -19 11 -12 15 -15 15 -24 2 -8 -13 -10 -12 -10 5 0 11 -7 29 -16
40 -13 18 -14 17 -8 -14 5 -25 4 -32 -4 -27 -7 4 -12 16 -12 26 0 10 -5 22
-10 25 -8 5 -8 11 -1 19 6 7 8 16 4 19 -3 4 -1 7 6 7 7 0 9 5 6 10 -3 6 1 10
10 10 9 0 14 4 10 9 -3 5 1 11 8 13 10 2 6 10 -11 28 -14 14 -21 18 -15 10 11
-17 -22 -83 -46 -88 -21 -4 -49 -45 -43 -61 3 -8 1 -12 -4 -8 -6 3 -16 1 -24
-5 -12 -8 -11 -9 3 -4 12 4 27 -3 44 -20 14 -14 33 -25 42 -24 49 4 90 1 121
-7 60 -16 4 -22 -117 -12 -59 4 -112 8 -116 8 -5 1 -6 5 -3 10 3 5 -6 12 -19
15 -16 4 -23 11 -19 18 5 8 1 9 -11 4 -15 -5 -16 -4 -6 8 10 11 6 17 -20 30
-17 9 -35 13 -40 10 -5 -3 -7 14 -4 38 4 31 3 40 -5 32 -13 -13 -16 -66 -6
-83 6 -9 12 -9 24 1 15 12 16 11 3 -4 -11 -16 -11 -18 2 -18 8 0 18 -7 21 -15
3 -9 20 -23 38 -31 l33 -15 -30 6 c-16 4 -47 23 -67 43 -21 20 -38 31 -38 25
0 -6 14 -23 31 -38 17 -14 30 -27 28 -29 -50 -36 -99 -81 -99 -92 0 -7 -4 -15
-9 -18 -17 -11 -166 16 -224 40 -33 14 -63 24 -69 22 -5 -2 33 -21 84 -43 87
-37 99 -40 183 -39 50 1 81 -1 70 -5 -13 -4 -20 -14 -19 -29 1 -12 -3 -25 -7
-28 -5 -3 -9 10 -10 28 0 29 -3 27 -20 -26 -11 -32 -17 -61 -14 -65 12 -11 77
70 72 89 -3 14 3 19 25 24 67 13 78 9 78 -30 0 -50 20 -113 40 -124 14 -8 15
0 8 73 -4 45 -6 87 -4 93 7 20 57 24 63 5 24 -73 52 -126 76 -143 30 -22 97
-41 97 -28 0 16 -30 31 -49 25 -10 -3 -22 -1 -26 4 -3 7 0 8 9 5 24 -9 20 1
-15 41 -18 20 -29 38 -26 42 4 3 0 21 -8 40 -18 44 -13 53 30 53 19 0 37 5 40
10 8 14 75 2 96 -16 8 -8 21 -14 28 -14 7 0 9 -5 6 -10 -4 -6 -2 -16 3 -23 11
-15 -17 -81 -37 -85 -11 -2 -10 3 3 23 12 19 14 30 7 39 -7 9 -7 16 1 24 9 9
8 12 -3 12 -9 0 -24 9 -34 20 -10 12 -25 18 -32 15 -8 -2 -11 0 -8 5 3 6 0 10
-9 10 -12 0 -13 -6 -4 -37 15 -57 37 -95 50 -87 7 4 8 3 4 -4 -16 -27 38 -39
184 -41 151 -2 205 4 193 22 -3 6 -1 7 5 3 15 -9 75 22 67 34 -3 6 0 7 8 4 16
-6 77 58 77 81 0 9 -10 15 -22 16 -13 0 -17 3 -10 6 10 4 10 8 1 19 -16 20
-164 19 -203 -1 -17 -9 -49 -16 -73 -17 -24 0 -46 -4 -48 -8 -3 -5 -13 -6 -23
-3 -10 2 -24 -3 -31 -11 -15 -18 -47 -21 -56 -5 -4 6 -16 14 -28 18 -15 6 0
11 56 20 63 10 77 16 77 31 0 21 26 34 36 18 5 -7 2 -8 -7 -3 -8 5 -11 4 -6 0
4 -5 15 -10 25 -11 9 -2 31 -6 47 -9 l30 -6 -30 15 c-27 14 -27 15 -5 11 23
-5 23 -4 6 7 -53 37 -63 49 -63 75 0 20 -16 41 -67 87 l-66 61 25 28 24 27 15
-27 c18 -35 49 -63 108 -96 51 -30 63 -33 52 -15 -4 7 -3 8 5 4 6 -4 9 -11 6
-16 -8 -13 93 -77 133 -85 17 -4 32 -4 32 -2 0 3 -24 28 -52 56 -29 28 -47 51
-40 51 6 0 12 -5 12 -11 0 -5 5 -7 11 -3 7 4 1 17 -17 35 -15 15 -31 26 -36
23 -5 -3 -7 0 -6 7 5 20 -34 23 -45 4 -7 -14 -11 -15 -17 -4 -5 8 -2 18 8 26
16 12 15 13 -3 11 -13 -2 -19 2 -17 11 2 10 -1 12 -10 5 -7 -6 -20 -10 -28 -9
-8 1 -23 3 -33 3 -10 1 -23 15 -28 32 -6 17 -15 30 -20 30 -16 0 -10 -37 12
-66 l21 -29 -27 29 c-22 24 -26 35 -20 63 8 42 -9 44 -24 2 -6 -17 -15 -28
-20 -25 -5 4 -11 1 -13 -4 -3 -9 -12 -13 -47 -19 -3 -1 8 -14 24 -31 16 -16
24 -30 19 -30 -19 0 -56 48 -49 61 6 8 4 10 -5 4 -9 -6 -11 -4 -5 5 5 9 4 11
-3 6 -8 -5 -10 -2 -6 9 5 11 10 13 19 5 9 -8 17 -6 29 5 9 9 16 13 17 8 0 -4
4 3 10 15 5 13 18 26 30 29 16 4 17 8 7 14 -9 6 -9 9 -1 9 7 0 17 -8 22 -19 6
-10 21 -21 35 -25 13 -3 32 -8 43 -11 10 -3 5 1 -12 9 -35 18 -18 21 19 5 14
-7 23 -16 19 -22 -3 -6 -1 -7 6 -3 12 8 94 -35 107 -56 4 -6 -3 -4 -17 5 -29
21 -40 22 -33 2 4 -8 9 -13 14 -10 4 2 26 -12 49 -31 22 -20 41 -31 41 -26 0
5 -12 17 -26 27 -14 9 -23 19 -20 23 9 9 57 -41 52 -54 -3 -7 4 -20 16 -30 11
-11 25 -27 30 -38 10 -18 8 -18 -17 2 -15 12 -31 19 -36 16 -15 -9 41 -53 59
-47 15 4 15 3 2 -6 -12 -9 -11 -11 8 -11 20 0 22 4 16 23 -13 44 -37 80 -80
123 -56 56 -156 121 -208 135 -23 6 -55 18 -72 27 -39 19 -74 11 -116 -27
l-32 -28 -59 48 c-131 105 -264 137 -462 108z m365 -54 c17 -9 30 -18 30 -21
0 -4 -59 23 -69 32 -10 9 13 3 39 -11z m250 -66 c0 -5 -4 -8 -9 -5 -5 4 -24
-6 -43 -20 l-33 -26 33 31 c33 32 52 39 52 20z m-30 -39 c0 -5 -5 -10 -11 -10
-5 0 -7 5 -4 10 3 6 8 10 11 10 2 0 4 -4 4 -10z m155 -90 c3 -5 1 -10 -4 -10
-6 0 -11 5 -11 10 0 6 2 10 4 10 3 0 8 -4 11 -10z m72 -69 c-3 -10 -5 -7 -6 7
0 12 -7 22 -15 22 -7 0 -20 7 -27 17 -13 15 -12 15 11 3 22 -12 24 -11 13 2
-7 8 -10 18 -6 22 9 9 35 -54 30 -73z m-172 19 c10 -11 16 -20 13 -20 -3 0
-13 9 -23 20 -10 11 -16 20 -13 20 3 0 13 -9 23 -20z m247 -13 c3 4 3 2 2 -5
-2 -7 13 -31 34 -54 l37 -42 -33 23 c-19 13 -36 30 -39 37 -4 12 -8 12 -22 2
-14 -12 -15 -11 -2 5 12 15 9 21 -11 18 -4 0 -4 7 -1 16 5 12 2 15 -10 10 -17
-6 -23 4 -10 16 3 4 16 -2 29 -14 12 -11 24 -17 26 -12z m-92 3 c0 -5 -7 -7
-15 -4 -8 4 -15 8 -15 10 0 2 7 4 15 4 8 0 15 -4 15 -10z m-420 -44 c0 -3 -4
-16 -10 -30 -9 -26 3 -38 14 -13 3 6 3 1 0 -12 -4 -14 -2 -21 4 -17 5 3 15 -1
22 -9 10 -12 10 -15 -2 -15 -20 0 -73 53 -59 58 6 2 11 12 11 23 0 10 5 19 10
19 6 0 10 -2 10 -4z m-170 -120 c0 -9 -68 -76 -78 -76 -6 0 -16 -8 -21 -17 -6
-10 -11 -13 -11 -6 0 13 89 103 102 103 5 0 8 -2 8 -4z m488 -19 c2 -9 -2 -17
-9 -17 -7 0 -9 3 -6 7 4 3 1 13 -6 21 -10 13 -9 14 3 10 8 -2 16 -12 18 -21z
m-448 6 c0 -4 -5 -22 -12 -40 -13 -35 -19 -39 -83 -48 -28 -4 -34 -3 -20 4 11
5 36 27 55 49 32 36 60 53 60 35z m71 -25 c1 -22 1 -22 8 2 7 24 7 24 13 4 4
-17 0 -25 -19 -33 -28 -13 -53 -14 -53 -3 1 28 15 52 31 52 13 0 19 -7 20 -22z
m115 12 c33 -13 30 -16 -27 -23 -41 -6 -47 -4 -52 13 -4 16 0 20 23 20 16 0
41 -5 56 -10z m179 0 c4 -6 -11 -10 -39 -10 -25 0 -48 5 -51 10 -4 6 11 10 39
10 25 0 48 -4 51 -10z m48 3 c-7 -2 -19 -2 -25 0 -7 3 -2 5 12 5 14 0 19 -2
13 -5z m-153 -13 c0 -5 -2 -10 -4 -10 -3 0 -8 5 -11 10 -3 6 -1 10 4 10 6 0
11 -4 11 -10z m-254 -36 c-4 -9 -9 -15 -11 -12 -3 3 -3 13 1 22 4 9 9 15 11
12 3 -3 3 -13 -1 -22z m311 20 c-3 -3 -12 -4 -19 -1 -8 3 -5 6 6 6 11 1 17 -2
13 -5z m353 -4 c0 -5 -2 -10 -4 -10 -3 0 -8 5 -11 10 -3 6 -1 10 4 10 6 0 11
-4 11 -10z m79 1 c19 -5 4 -12 -67 -30 -81 -21 -93 -22 -106 -9 -13 14 -12 17
11 27 14 6 28 9 31 6 3 -3 0 -5 -7 -5 -7 0 -9 -4 -6 -10 4 -6 -1 -7 -12 -4
-15 5 -15 4 -3 -4 10 -8 18 -8 27 0 8 6 26 12 41 13 58 4 59 4 42 15 -12 8
-11 10 5 9 11 -1 31 -4 44 -8z m-629 -21 c-8 -5 -22 -9 -30 -9 -10 0 -8 3 5 9
27 12 43 12 25 0z m390 -21 c0 -5 5 -9 11 -9 6 0 9 7 5 15 -10 26 11 16 41
-19 l28 -33 80 19 c44 10 84 24 90 30 7 8 6 9 -2 4 -6 -3 -15 -1 -19 5 -5 9 0
10 17 6 13 -4 31 -7 39 -7 19 0 -28 -34 -50 -35 -8 -1 -31 -7 -50 -13 -19 -6
-46 -13 -60 -15 -22 -4 -21 -4 5 -5 17 -1 48 5 70 13 50 18 57 12 14 -14 -19
-11 -39 -25 -46 -30 -8 -7 -14 -7 -18 -1 -9 15 -27 0 -21 -17 4 -8 1 -11 -5
-8 -6 4 -8 13 -5 20 7 18 -14 24 -39 11 -51 -28 -51 -31 -5 -37 l45 -6 -42 -1
c-23 -1 -44 2 -48 8 -4 6 -15 6 -31 0 -31 -12 -44 -13 -26 -2 9 7 8 13 -8 27
-21 19 -42 13 -22 -7 19 -19 15 -23 -22 -25 -29 -1 -34 1 -29 15 5 14 3 15 -8
5 -15 -15 -45 -17 -53 -4 -3 5 2 17 12 28 9 10 13 13 8 5 -15 -21 55 -8 71 14
7 9 32 19 60 22 35 4 42 7 28 12 -11 4 -40 1 -65 -6 -58 -18 -78 -17 -96 1
-14 13 -13 15 3 15 11 0 25 -6 31 -12 10 -10 14 -8 18 9 5 17 12 20 35 16 21
-3 29 0 29 11 0 10 6 13 15 10 8 -4 15 -10 15 -15z m-515 -11 c-64 -11 -85 -7
-30 6 28 7 55 10 60 7 6 -3 -8 -9 -30 -13z m290 -6 c-3 -3 4 -15 15 -27 20
-21 20 -23 3 -29 -9 -4 -14 -4 -10 0 4 4 0 16 -10 26 -9 10 -13 21 -10 25 4 3
1 13 -6 22 -11 14 -10 14 6 2 9 -8 15 -16 12 -19z m445 24 c0 -11 -19 -15 -25
-6 -3 5 1 10 9 10 9 0 16 -2 16 -4z m-609 -18 c1 -7 1 -19 0 -27 -2 -8 2 -10
10 -5 8 4 10 3 5 -4 -4 -6 2 -30 13 -52 12 -25 15 -40 8 -37 -7 2 -16 17 -22
33 -5 16 -13 31 -16 34 -13 10 -21 70 -10 70 6 0 12 -6 12 -12z m564 2 c-3 -5
-11 -10 -16 -10 -6 0 -7 5 -4 10 3 6 11 10 16 10 6 0 7 -4 4 -10z m-40 -10
c-3 -5 -11 -10 -16 -10 -6 0 -7 5 -4 10 3 6 11 10 16 10 6 0 7 -4 4 -10z
m-640 -55 c0 -19 -3 -35 -7 -35 -5 0 -8 16 -8 35 0 19 3 35 8 35 4 0 7 -16 7
-35z m422 9 c-3 -3 -12 -4 -19 -1 -8 3 -5 6 6 6 11 1 17 -2 13 -5z m-582 -44
c-3 -5 -11 -10 -16 -10 -6 0 -7 5 -4 10 3 6 11 10 16 10 6 0 7 -4 4 -10z"/>
    <path d="M2570 1005 c-7 -8 -23 -15 -36 -15 -28 0 -32 -15 -6 -25 30 -13 50
-12 45 2 -3 8 3 13 16 13 12 0 21 5 21 11 0 5 -4 7 -10 4 -6 -3 -7 1 -4 9 8
20 -10 21 -26 1z"/>
    <path d="M2457 957 c-3 -8 1 -14 9 -14 16 0 19 13 5 21 -5 3 -11 0 -14 -7z"/>
    <path d="M2388 953 c6 -2 18 -2 25 0 6 3 1 5 -13 5 -14 0 -19 -2 -12 -5z"/>
    <path d="M1795 1525 c-16 -8 -41 -14 -54 -15 -15 0 -41 -18 -73 -51 -30 -32
-55 -49 -66 -46 -13 3 -10 8 15 23 18 10 33 24 33 31 0 6 8 13 18 16 16 4 16
4 -1 12 -22 9 -87 -48 -87 -77 0 -10 -7 -18 -15 -18 -8 0 -22 -11 -31 -25 -14
-21 -15 -31 -5 -51 6 -15 7 -23 1 -19 -5 3 -15 -6 -22 -20 -18 -41 9 -109 46
-113 33 -4 61 18 87 71 24 47 67 67 86 41 7 -10 13 -23 13 -28 0 -6 7 2 15 17
8 15 12 34 8 42 -3 8 0 15 7 15 8 0 10 -10 6 -34 -5 -24 -2 -37 10 -47 15 -12
16 -10 11 26 -2 22 -6 45 -7 50 -8 32 4 23 19 -15 10 -25 26 -46 35 -48 13 -3
14 1 6 23 -5 14 -10 36 -10 48 0 15 7 8 21 -23 11 -25 18 -54 14 -67 -3 -13
-3 -23 1 -23 16 0 30 29 31 62 1 31 13 52 69 118 37 44 68 80 70 80 1 0 45
-17 97 -39 87 -35 97 -37 111 -23 10 10 16 12 16 4 0 -18 -33 -32 -53 -21 -9
6 -22 7 -27 4 -6 -4 -28 2 -49 13 -29 15 -42 17 -50 9 -6 -6 -11 -7 -11 -1 0
5 -5 2 -11 -6 -9 -13 -10 -13 -6 0 2 8 9 16 15 16 7 1 15 2 20 3 6 1 -45 31
-53 31 -5 0 1 -46 8 -57 5 -8 42 -11 42 -3 0 1 8 3 17 5 9 2 27 -9 40 -23 13
-14 18 -23 13 -19 -6 3 -11 -3 -11 -13 0 -10 4 -16 9 -13 5 3 6 -5 2 -18 -5
-20 -3 -19 13 6 12 19 16 34 10 42 -6 7 -5 14 2 18 15 9 77 -34 92 -65 13 -26
61 -38 51 -13 -3 7 -11 13 -19 13 -8 0 -14 4 -14 9 0 5 -15 18 -32 30 -18 11
-28 21 -22 21 5 0 15 -5 21 -11 6 -6 16 -8 22 -5 15 10 14 36 -1 36 -8 0 -5 7
6 15 18 14 15 20 -7 16 -5 -1 -6 3 -3 7 7 11 -28 45 -36 36 -7 -7 -54 38 -51
48 2 4 -8 2 -22 -4 -14 -6 -25 -14 -25 -17 0 -3 -7 -14 -14 -24 -13 -17 -16
-17 -77 0 -35 9 -70 23 -77 30 -7 7 -33 13 -56 13 -24 0 -56 2 -72 5 -16 2
-42 -2 -59 -10z m27 -17 c-7 -7 -13 -23 -13 -37 -2 -24 -2 -24 -6 -3 -2 12 -9
22 -14 22 -6 0 -7 -10 -3 -22 8 -30 8 -30 26 -23 10 4 14 15 12 28 l-5 22 12
-22 c8 -14 9 -38 4 -70 -5 -30 -10 -40 -13 -28 -5 20 -5 20 -12 0 -7 -19 -7
-19 -19 2 -6 12 -13 44 -16 72 -5 47 -4 50 22 59 37 14 39 14 25 0z m88 -3
c-10 -12 -8 -18 6 -32 17 -17 17 -17 12 5 -4 13 -2 20 3 16 6 -3 16 0 24 6 20
16 19 5 -1 -25 -9 -13 -13 -29 -9 -35 3 -5 1 -10 -4 -10 -6 0 -11 -17 -12 -37
0 -31 -2 -34 -9 -18 -9 20 -9 20 -10 0 -1 -20 -1 -20 -10 0 -8 19 -9 19 -9 -2
-1 -12 5 -23 12 -26 20 -7 3 -17 -20 -11 -27 7 -35 39 -27 111 7 60 16 73 48
73 15 0 16 -3 6 -15z m280 10 c0 -7 -39 -45 -45 -45 -3 0 2 11 11 25 14 22 34
34 34 20z m-446 -42 c-10 -38 -34 -74 -45 -67 -11 6 -5 -38 7 -57 4 -7 3 -9
-3 -6 -6 4 -14 0 -17 -9 -3 -8 -2 -12 4 -9 5 3 7 0 5 -7 -3 -7 -16 -18 -29
-24 -22 -10 -24 -9 -21 12 3 28 4 27 -30 12 -14 -6 -25 -17 -25 -23 0 -7 -10
-20 -22 -31 -13 -10 -17 -12 -10 -4 18 21 14 32 -8 20 -11 -6 -20 -18 -20 -26
0 -8 -4 -12 -10 -9 -16 10 -12 21 15 35 14 7 25 19 25 26 0 6 8 15 17 18 15 6
15 8 3 16 -9 6 -10 10 -3 10 6 0 15 -4 18 -10 3 -5 13 -10 20 -10 17 0 9 26
-8 28 -7 0 -23 4 -36 8 -20 6 -23 4 -18 -9 3 -9 2 -19 -3 -22 -6 -4 -10 3 -10
14 0 20 27 41 52 41 10 0 9 -3 -2 -11 -12 -8 -9 -10 13 -6 23 4 30 0 39 -22 6
-14 10 -30 9 -34 -1 -5 3 -6 9 -2 15 9 12 41 -5 55 -8 7 -15 20 -14 29 0 10 3
8 10 -7 5 -13 13 -20 19 -17 7 4 6 13 -1 27 -8 15 -8 23 2 32 9 8 11 7 6 -6
-4 -12 -1 -16 14 -15 22 1 24 8 8 24 -7 7 -8 17 -1 28 6 12 11 14 16 6 4 -6 2
-11 -3 -11 -6 0 -11 -4 -11 -10 0 -21 19 -8 29 20 13 38 24 39 15 3z m486 -10
c0 -13 3 -13 15 -3 27 23 26 4 -2 -21 -16 -15 -24 -18 -21 -9 3 9 0 24 -8 35
-19 25 -18 41 1 25 8 -7 15 -19 15 -27z m-227 18 c4 10 6 9 6 -3 1 -11 -6 -16
-19 -15 -21 1 -25 9 -13 20 4 4 10 2 14 -4 5 -8 8 -7 12 2z m-239 -27 c3 -8 2
-12 -4 -9 -6 3 -10 10 -10 16 0 14 7 11 14 -7z m434 -5 c12 -19 12 -20 -10
-14 -29 9 -31 11 -23 24 9 16 19 13 33 -10z m-442 -36 c16 -21 18 -47 4 -38
-6 3 -7 -1 -4 -9 9 -22 -10 -20 -31 4 -15 17 -16 23 -5 33 10 10 11 9 5 -2 -5
-9 -4 -12 3 -7 6 4 9 13 5 21 -7 21 7 19 23 -2z m-6 -90 c0 -10 -4 -14 -8 -8
-4 6 -11 13 -16 18 -5 4 -2 7 7 7 10 0 17 -8 17 -17z m77 2 c0 -8 -4 -12 -9
-9 -4 3 -8 9 -8 15 0 5 4 9 8 9 5 0 9 -7 9 -15z m66 -26 c-4 -15 -8 -17 -14
-8 -6 11 4 28 18 29 0 0 -1 -9 -4 -21z m-289 -38 c-15 -27 -36 -54 -48 -60
-20 -10 -19 -11 4 -5 13 4 30 13 38 20 24 25 26 15 2 -11 -29 -31 -58 -32 -69
-2 -6 16 -4 24 8 28 9 4 19 5 23 2 4 -2 12 7 19 19 12 23 39 58 46 58 2 0 -9
-22 -23 -49z m23 -6 c0 -8 -4 -12 -9 -9 -5 3 -6 10 -3 15 9 13 12 11 12 -6z"/>
    <path d="M1876 1484 c-4 -15 -5 -29 -1 -32 3 -3 5 3 6 14 1 15 3 14 9 -6 7
-21 8 -20 7 12 -2 44 -12 49 -21 12z"/>
    <path d="M1880 1420 c0 -5 5 -10 11 -10 5 0 7 5 4 10 -3 6 -8 10 -11 10 -2 0
-4 -4 -4 -10z"/>
    <path d="M1860 1390 c0 -8 5 -22 10 -30 9 -13 10 -13 10 0 0 8 -5 22 -10 30
-9 13 -10 13 -10 0z"/>
    <path d="M2411 1454 c0 -11 3 -14 6 -6 3 7 2 16 -1 19 -3 4 -6 -2 -5 -13z"/>
    <path d="M2510 1442 c0 -12 25 -22 53 -22 17 1 19 2 7 9 -27 16 -60 22 -60 13z"/>
    <path d="M1988 1394 c-24 -25 -44 -51 -46 -57 -2 -7 10 3 27 21 17 17 34 33
38 33 5 1 7 6 5 11 -2 6 4 8 12 5 10 -4 14 0 13 14 -1 10 -2 19 -4 19 -1 0
-21 -21 -45 -46z"/>
    <path d="M2063 1383 c-37 -5 -39 -8 -18 -29 13 -13 12 -17 -6 -35 -16 -16 -18
-23 -8 -35 9 -11 9 -18 1 -26 -20 -20 21 -78 55 -78 4 0 -2 9 -12 20 -17 18
-16 21 14 59 20 25 33 55 37 85 7 50 11 48 -63 39z"/>
    <path d="M2450 1345 c7 -9 15 -13 17 -11 7 7 -7 26 -19 26 -6 0 -6 -6 2 -15z"/>
    <path d="M2010 1340 c0 -5 7 -10 15 -10 8 0 15 5 15 10 0 6 -7 10 -15 10 -8 0
-15 -4 -15 -10z"/>
    <path d="M1980 1325 c0 -8 2 -15 4 -15 2 0 12 -3 21 -6 15 -6 15 -4 4 15 -16
25 -29 27 -29 6z"/>
    <path d="M2240 1323 c1 -19 50 -62 64 -57 24 9 19 24 -8 24 -16 0 -27 7 -31
20 -6 19 -25 29 -25 13z"/>
    <path d="M1950 1310 c0 -5 5 -10 10 -10 6 0 10 5 10 10 0 6 -4 10 -10 10 -5 0
-10 -4 -10 -10z"/>
    <path d="M2210 1284 c0 -19 59 -74 79 -74 11 0 10 4 -5 19 -10 11 -28 31 -39
45 -23 29 -35 33 -35 10z"/>
    <path d="M2000 1270 c0 -5 5 -10 10 -10 6 0 10 5 10 10 0 6 -4 10 -10 10 -5 0
-10 -4 -10 -10z"/>
    <path d="M1647 1210 c-21 -27 -42 -50 -47 -50 -6 0 -10 -5 -10 -11 0 -13 58
-38 130 -55 85 -21 113 -18 143 14 14 15 36 34 49 43 19 14 21 19 9 33 -7 9
-22 16 -32 16 -11 0 -29 11 -41 25 -20 23 -23 24 -40 9 -14 -14 -21 -14 -32
-5 -8 7 -19 10 -24 7 -6 -3 -15 1 -22 9 -22 26 -45 16 -83 -35z"/>
    <path d="M2312 1248 c-8 -8 -7 -15 6 -24 23 -18 42 -17 42 2 0 11 -6 15 -20
11 -11 -3 -20 -1 -20 4 0 13 37 11 45 -2 4 -6 13 -8 19 -6 7 3 13 -1 13 -9 0
-16 -59 -30 -79 -19 -7 4 -6 0 3 -10 12 -12 23 -15 40 -9 13 4 30 7 37 6 11
-3 16 10 13 30 0 4 9 5 22 3 l22 -4 -23 16 c-29 20 -104 27 -120 11z"/>
    <path d="M1016 1088 c-9 -52 -28 -330 -23 -334 13 -13 35 13 46 54 12 47 54
112 72 112 5 0 9 -36 9 -79 0 -44 5 -83 10 -86 14 -9 80 14 80 27 0 6 -10 8
-25 4 -24 -6 -24 -6 -27 75 -2 64 -7 84 -20 93 -21 13 -66 -17 -86 -58 -8 -15
-15 -26 -17 -24 -2 2 3 53 11 113 17 140 17 135 -6 135 -14 0 -21 -9 -24 -32z"/>
    <path d="M193 1053 c-21 -8 -15 -23 8 -23 21 0 21 -3 14 -77 -7 -72 -22 -145
-40 -186 -6 -16 -4 -18 16 -15 27 4 36 29 46 149 l8 84 29 -105 c16 -58 32
-112 37 -120 5 -11 24 19 64 103 31 64 58 117 58 117 1 0 -2 -45 -7 -100 -8
-88 -7 -103 7 -117 12 -13 23 -14 47 -7 31 9 43 32 13 26 -25 -5 -33 18 -28
78 17 206 17 200 -2 200 -13 0 -34 -30 -74 -112 l-56 -113 -27 90 c-39 131
-41 135 -73 134 -16 0 -34 -3 -40 -6z"/>
    <path d="M756 1042 c-3 -5 -8 -28 -12 -52 -5 -29 -13 -44 -25 -47 -22 -6 -25
-23 -5 -23 12 0 14 -15 13 -70 -3 -90 12 -109 73 -91 47 14 55 37 10 28 -40
-8 -53 16 -44 83 6 47 8 50 35 50 19 0 29 5 29 15 0 11 -8 13 -31 8 -27 -5
-31 -4 -26 13 3 10 9 36 13 57 5 30 3 37 -9 37 -9 0 -18 -4 -21 -8z"/>
    <path d="M897 1043 c-3 -5 -8 -28 -12 -52 -5 -30 -13 -45 -26 -48 -23 -6 -25
-23 -4 -23 12 0 15 -15 15 -74 0 -91 11 -105 70 -87 48 14 53 32 8 29 l-33 -3
-3 67 -3 67 33 3 c39 4 40 23 0 23 -15 0 -26 5 -26 10 1 6 5 29 9 53 5 34 4
42 -9 42 -8 0 -17 -3 -19 -7z"/>
    <path d="M1240 1015 c-11 -13 -11 -19 3 -33 20 -19 41 -5 35 24 -4 24 -22 28
-38 9z"/>
    <path d="M2077 1006 c-3 -8 -3 -17 0 -20 4 -3 7 -31 8 -61 2 -47 -1 -58 -18
-70 -19 -13 -23 -13 -40 4 -10 10 -26 47 -35 83 -16 58 -19 63 -40 58 -13 -3
-22 -7 -22 -10 4 -13 -26 -58 -56 -84 -28 -23 -37 -26 -49 -16 -12 10 -16 8
-24 -13 -6 -14 -19 -31 -30 -36 -16 -9 -23 -7 -35 11 -9 12 -16 27 -16 33 0 6
-9 21 -21 34 -24 25 -54 21 -81 -11 -16 -17 -16 -23 -4 -47 8 -15 32 -36 53
-46 21 -11 60 -37 87 -59 45 -37 49 -38 59 -20 17 30 76 84 92 84 8 0 15 4 15
9 0 5 20 8 43 7 45 -2 94 -26 104 -51 4 -12 13 -8 41 15 19 16 39 27 43 24 4
-2 10 0 14 6 3 5 23 10 43 10 l36 0 -47 30 c-38 24 -53 42 -74 90 -26 61 -37
71 -46 46z"/>
    <path d="M1776 1001 c-2 -3 5 -17 16 -31 16 -20 21 -21 29 -9 15 24 10 36 -16
41 -14 3 -27 3 -29 -1z"/>
    <path d="M1627 986 c-65 -24 -97 -66 -97 -128 0 -50 28 -85 104 -132 87 -52
111 -82 101 -126 -21 -96 -185 -87 -185 11 0 19 -5 29 -15 29 -12 0 -15 -13
-15 -60 0 -56 2 -61 26 -70 37 -14 119 -12 157 4 49 21 79 59 84 109 8 66 -14
99 -100 148 -39 23 -80 51 -89 63 -41 50 -2 126 64 126 46 0 76 -24 84 -66 9
-48 28 -37 32 19 3 39 -1 48 -20 61 -35 22 -89 27 -131 12z"/>
    <path d="M595 952 c-47 -10 -78 -72 -35 -72 14 0 19 6 17 22 -3 29 32 37 50
12 21 -28 16 -41 -19 -48 -50 -10 -78 -33 -78 -64 0 -56 45 -69 85 -26 18 19
25 22 25 12 0 -24 27 -41 55 -34 31 8 33 24 3 28 -21 3 -23 9 -26 73 -4 87
-21 108 -77 97z m35 -115 c0 -17 -44 -59 -53 -50 -15 14 -6 44 16 53 31 12 37
12 37 -3z"/>
    <path d="M1236 951 c-10 -16 -8 -183 2 -193 13 -13 64 3 70 21 3 9 -2 11 -16
7 -18 -6 -22 -2 -26 26 -3 18 -5 57 -3 87 2 51 -12 77 -27 52z"/>
    <path d="M1362 940 c-37 -23 -40 -53 -6 -58 18 -3 21 1 16 23 -4 24 -2 26 24
23 23 -2 30 -9 32 -29 3 -22 -2 -27 -25 -32 -37 -7 -83 -44 -83 -66 0 -20 30
-51 49 -51 6 0 23 11 36 24 23 23 25 23 30 6 8 -24 39 -34 65 -20 28 15 25 32
-5 24 -25 -6 -25 -6 -25 65 0 58 -4 75 -20 91 -25 25 -46 25 -88 0z m68 -98
c0 -4 -7 -18 -16 -30 -26 -37 -71 -23 -46 14 12 19 62 32 62 16z"/>
    <path d="M799 888 c-1 -7 -3 -25 -4 -40 -4 -28 13 -42 34 -29 19 12 10 75 -11
79 -10 2 -19 -2 -19 -10z"/>
    <path d="M938 878 c-2 -13 -1 -34 2 -48 l6 -25 13 23 c14 26 11 64 -5 69 -6 2
-13 -6 -16 -19z"/>
    <path d="M1920 803 c-52 -19 -100 -100 -100 -168 0 -83 45 -135 117 -135 41 0
100 30 110 55 9 26 -4 28 -33 6 -51 -40 -107 -18 -133 52 -14 36 -7 47 30 47
34 0 95 24 121 47 43 38 3 104 -61 102 -20 0 -43 -3 -51 -6z m58 -35 c32 -32
-1 -71 -71 -83 l-38 -7 16 38 c24 58 64 81 93 52z"/>
    <path d="M1925 730 c-18 -20 -18 -21 5 -12 13 5 26 14 28 20 6 19 -13 14 -33
-8z"/>
    <path d="M2145 795 c-36 -19 -55 -42 -55 -67 0 -21 32 -40 54 -32 12 5 13 9 3
25 -25 40 35 77 77 46 12 -9 19 -27 20 -53 1 -38 0 -39 -39 -44 -45 -7 -95
-31 -115 -55 -8 -9 -14 -33 -14 -52 0 -42 23 -63 70 -63 26 0 40 9 68 42 34
39 36 40 36 16 0 -49 70 -77 113 -44 25 20 21 28 -11 21 -47 -10 -57 13 -57
132 0 98 -2 106 -24 124 -28 23 -85 25 -126 4z m90 -172 c-13 -55 -67 -95 -92
-70 -35 35 16 95 81 97 15 0 17 -5 11 -27z"/>
    <path d="M2183 613 c-15 -5 -17 -23 -4 -23 5 0 11 7 15 15 3 8 4 15 3 14 -1 0
-8 -3 -14 -6z"/>
    <path d="M1380 705 c0 -37 -3 -45 -19 -45 -32 0 -71 -39 -71 -71 0 -19 -5 -29
-15 -29 -11 0 -15 12 -15 44 0 52 -24 70 -51 37 -17 -20 -17 -20 -22 -1 -6 22
-15 25 -37 9 -11 -8 -12 -12 -2 -16 7 -3 12 -24 12 -55 0 -58 19 -62 33 -7 5
19 15 41 23 49 12 12 14 8 14 -32 0 -52 10 -64 40 -48 15 8 25 8 34 1 17 -14
42 -5 51 17 6 15 8 14 16 -5 10 -27 18 -28 45 -8 19 14 19 14 -3 15 -19 0 -21
5 -18 33 15 117 15 157 0 157 -11 0 -15 -12 -15 -45z m-10 -75 c0 -18 -30 -70
-40 -70 -14 0 -12 54 2 68 15 15 38 16 38 2z"/>
    <path d="M2184 743 c-16 -5 -5 -43 12 -43 7 0 16 5 20 11 8 13 -17 38 -32 32z"/>
    <path d="M2047 687 c-6 -17 -63 -44 -102 -50 -33 -4 -44 -29 -25 -52 16 -19
59 -19 84 0 11 8 28 15 38 15 10 0 18 5 18 10 0 6 11 20 25 32 23 20 24 23 8
40 -19 21 -39 23 -46 5z"/>
    <path d="M1058 649 c-22 -12 -23 -39 -2 -39 8 0 13 4 9 9 -3 5 0 13 6 17 6 3
15 0 20 -7 6 -10 -1 -19 -26 -32 -37 -19 -44 -37 -21 -56 11 -9 20 -9 34 -2
13 7 22 7 30 -1 6 -6 18 -8 26 -5 19 7 22 28 4 25 -9 -2 -14 13 -16 42 -4 57
-25 72 -64 49z m32 -68 c0 -12 -20 -25 -27 -18 -7 7 6 27 18 27 5 0 9 -4 9 -9z"/>
    <path d="M1113 363 c-13 -2 -23 -8 -23 -12 0 -4 26 -3 58 2 109 17 233 -27
240 -86 3 -22 -1 -27 -19 -27 -17 0 -20 -3 -12 -11 16 -16 51 -2 59 23 9 29
-23 68 -76 96 -36 18 -59 22 -125 21 -44 -1 -90 -4 -102 -6z"/>
    <path d="M1275 315 c44 -32 55 -48 43 -62 -9 -11 -7 -18 7 -31 17 -16 17 -16
11 2 -4 12 0 24 11 33 17 13 17 15 -6 31 -14 9 -38 23 -55 29 -28 12 -29 11
-11 -2z"/>
    <path d="M1030 306 c-94 -27 -224 -76 -203 -76 13 0 67 14 120 32 81 26 113
32 183 31 50 0 103 -7 130 -16 51 -19 65 -15 23 6 -68 35 -176 45 -253 23z"/>
    <path d="M995 259 c-33 -11 -103 -28 -155 -39 -82 -16 -89 -18 -48 -19 54 -1
124 12 218 40 48 15 81 19 125 15 43 -5 54 -3 38 4 -49 20 -117 20 -178 -1z"/>
  </g>
</svg>
